const cueSet1 = [
    {
        "duration": 0.069444375,
        "durationTicks": 1920,
        "midi": 36,
        "name": "C2",
        "ticks": 0,
        "time": 0,
        "velocity": 0.6299212598425197
    },
    {
        "duration": 0.069444375,
        "durationTicks": 1920,
        "midi": 44,
        "name": "G#2",
        "ticks": 0,
        "time": 0,
        "velocity": 0.6299212598425197
    },
    {
        "duration": 0.069444375,
        "durationTicks": 1920,
        "midi": 44,
        "name": "G#2",
        "ticks": 7680,
        "time": 0.2777775,
        "velocity": 0.6299212598425197
    },
    {
        "duration": 0.069444375,
        "durationTicks": 1920,
        "midi": 37,
        "name": "C#2",
        "ticks": 15360,
        "time": 0.555555,
        "velocity": 0.6299212598425197
    },
    {
        "duration": 0.069444375,
        "durationTicks": 1920,
        "midi": 44,
        "name": "G#2",
        "ticks": 15360,
        "time": 0.555555,
        "velocity": 0.6299212598425197
    },
    {
        "duration": 0.069444375,
        "durationTicks": 1920,
        "midi": 44,
        "name": "G#2",
        "ticks": 23040,
        "time": 0.8333325,
        "velocity": 0.6299212598425197
    },
    {
        "duration": 0.069444375,
        "durationTicks": 1920,
        "midi": 36,
        "name": "C2",
        "ticks": 26880,
        "time": 0.97222125,
        "velocity": 0.6299212598425197
    },
    {
        "duration": 0.069444375,
        "durationTicks": 1920,
        "midi": 36,
        "name": "C2",
        "ticks": 30720,
        "time": 1.11111,
        "velocity": 0.6299212598425197
    },
    {
        "duration": 0.069444375,
        "durationTicks": 1920,
        "midi": 44,
        "name": "G#2",
        "ticks": 30720,
        "time": 1.11111,
        "velocity": 0.6299212598425197
    },
    {
        "duration": 0.069444375,
        "durationTicks": 1920,
        "midi": 36,
        "name": "C2",
        "ticks": 38400,
        "time": 1.3888875,
        "velocity": 0.6299212598425197
    },
    {
        "duration": 0.069444375,
        "durationTicks": 1920,
        "midi": 44,
        "name": "G#2",
        "ticks": 38400,
        "time": 1.3888875,
        "velocity": 0.6299212598425197
    },
    {
        "duration": 0.069444375,
        "durationTicks": 1920,
        "midi": 37,
        "name": "C#2",
        "ticks": 46080,
        "time": 1.666665,
        "velocity": 0.6299212598425197
    },
    {
        "duration": 0.069444375,
        "durationTicks": 1920,
        "midi": 44,
        "name": "G#2",
        "ticks": 46080,
        "time": 1.666665,
        "velocity": 0.6299212598425197
    },
    {
        "duration": 0.03993051562500005,
        "durationTicks": 1104,
        "midi": 44,
        "name": "G#2",
        "ticks": 49920,
        "time": 1.80555375,
        "velocity": 0.6299212598425197
    },
    {
        "duration": 0.069444375,
        "durationTicks": 1920,
        "midi": 44,
        "name": "G#2",
        "ticks": 51025,
        "time": 1.8455204345703125,
        "velocity": 0.6299212598425197
    },
    {
        "duration": 0.06944437499999978,
        "durationTicks": 1920,
        "midi": 44,
        "name": "G#2",
        "ticks": 53760,
        "time": 1.9444425,
        "velocity": 0.6299212598425197
    },
    {
        "duration": 0.06944437499999978,
        "durationTicks": 1920,
        "midi": 36,
        "name": "C2",
        "ticks": 61440,
        "time": 2.22222,
        "velocity": 0.6299212598425197
    },
    {
        "duration": 0.06944437499999978,
        "durationTicks": 1920,
        "midi": 44,
        "name": "G#2",
        "ticks": 61440,
        "time": 2.22222,
        "velocity": 0.6299212598425197
    },
    {
        "duration": 0.06944437499999978,
        "durationTicks": 1920,
        "midi": 44,
        "name": "G#2",
        "ticks": 69120,
        "time": 2.4999975,
        "velocity": 0.6299212598425197
    },
    {
        "duration": 0.03993051562500005,
        "durationTicks": 1104,
        "midi": 44,
        "name": "G#2",
        "ticks": 72960,
        "time": 2.63888625,
        "velocity": 0.6299212598425197
    },
    {
        "duration": 0.06944437500000022,
        "durationTicks": 1920,
        "midi": 44,
        "name": "G#2",
        "ticks": 74065,
        "time": 2.6788529345703127,
        "velocity": 0.6299212598425197
    },
    {
        "duration": 0.06944437499999978,
        "durationTicks": 1920,
        "midi": 37,
        "name": "C#2",
        "ticks": 76800,
        "time": 2.777775,
        "velocity": 0.6299212598425197
    },
    {
        "duration": 0.06944437499999978,
        "durationTicks": 1920,
        "midi": 44,
        "name": "G#2",
        "ticks": 76800,
        "time": 2.777775,
        "velocity": 0.6299212598425197
    },
    {
        "duration": 0.06944437499999978,
        "durationTicks": 1920,
        "midi": 44,
        "name": "G#2",
        "ticks": 84480,
        "time": 3.0555525,
        "velocity": 0.6299212598425197
    },
    {
        "duration": 0.06944437500000022,
        "durationTicks": 1920,
        "midi": 36,
        "name": "C2",
        "ticks": 88320,
        "time": 3.19444125,
        "velocity": 0.6299212598425197
    },
    {
        "duration": 0.06944437499999978,
        "durationTicks": 1920,
        "midi": 36,
        "name": "C2",
        "ticks": 92160,
        "time": 3.33333,
        "velocity": 0.6299212598425197
    },
    {
        "duration": 0.06944437499999978,
        "durationTicks": 1920,
        "midi": 44,
        "name": "G#2",
        "ticks": 92160,
        "time": 3.33333,
        "velocity": 0.6299212598425197
    },
    {
        "duration": 0.06944437499999978,
        "durationTicks": 1920,
        "midi": 36,
        "name": "C2",
        "ticks": 99840,
        "time": 3.6111075,
        "velocity": 0.6299212598425197
    },
    {
        "duration": 0.06944437499999978,
        "durationTicks": 1920,
        "midi": 44,
        "name": "G#2",
        "ticks": 99840,
        "time": 3.6111075,
        "velocity": 0.6299212598425197
    },
    {
        "duration": 0.06944437499999978,
        "durationTicks": 1920,
        "midi": 37,
        "name": "C#2",
        "ticks": 107520,
        "time": 3.888885,
        "velocity": 0.6299212598425197
    },
    {
        "duration": 0.06944437499999978,
        "durationTicks": 1920,
        "midi": 44,
        "name": "G#2",
        "ticks": 107520,
        "time": 3.888885,
        "velocity": 0.6299212598425197
    },
    {
        "duration": 0.039930515625000496,
        "durationTicks": 1104,
        "midi": 44,
        "name": "G#2",
        "ticks": 111360,
        "time": 4.02777375,
        "velocity": 0.6299212598425197
    },
    {
        "duration": 0.06944437499999978,
        "durationTicks": 1920,
        "midi": 44,
        "name": "G#2",
        "ticks": 112465,
        "time": 4.067740434570313,
        "velocity": 0.6299212598425197
    },
    {
        "duration": 0.06944437499999978,
        "durationTicks": 1920,
        "midi": 44,
        "name": "G#2",
        "ticks": 115200,
        "time": 4.1666625,
        "velocity": 0.6299212598425197
    },
    {
        "duration": 0.06944437499999978,
        "durationTicks": 1920,
        "midi": 36,
        "name": "C2",
        "ticks": 122880,
        "time": 4.44444,
        "velocity": 0.6299212598425197
    },
    {
        "duration": 0.06944437499999978,
        "durationTicks": 1920,
        "midi": 44,
        "name": "G#2",
        "ticks": 122880,
        "time": 4.44444,
        "velocity": 0.6299212598425197
    },
    {
        "duration": 0.06944437499999978,
        "durationTicks": 1920,
        "midi": 44,
        "name": "G#2",
        "ticks": 130560,
        "time": 4.7222175,
        "velocity": 0.6299212598425197
    },
    {
        "duration": 0.03993051562499961,
        "durationTicks": 1104,
        "midi": 44,
        "name": "G#2",
        "ticks": 134400,
        "time": 4.861106250000001,
        "velocity": 0.6299212598425197
    },
    {
        "duration": 0.06944437499999978,
        "durationTicks": 1920,
        "midi": 44,
        "name": "G#2",
        "ticks": 135505,
        "time": 4.901072934570313,
        "velocity": 0.6299212598425197
    },
    {
        "duration": 0.06944437499999978,
        "durationTicks": 1920,
        "midi": 37,
        "name": "C#2",
        "ticks": 138240,
        "time": 4.999995,
        "velocity": 0.6299212598425197
    },
    {
        "duration": 0.06944437499999978,
        "durationTicks": 1920,
        "midi": 44,
        "name": "G#2",
        "ticks": 138240,
        "time": 4.999995,
        "velocity": 0.6299212598425197
    },
    {
        "duration": 0.06944437499999978,
        "durationTicks": 1920,
        "midi": 44,
        "name": "G#2",
        "ticks": 145920,
        "time": 5.2777725,
        "velocity": 0.6299212598425197
    },
    {
        "duration": 0.06944437499999978,
        "durationTicks": 1920,
        "midi": 36,
        "name": "C2",
        "ticks": 149760,
        "time": 5.416661250000001,
        "velocity": 0.6299212598425197
    },
    {
        "duration": 0.06944437499999978,
        "durationTicks": 1920,
        "midi": 36,
        "name": "C2",
        "ticks": 153600,
        "time": 5.55555,
        "velocity": 0.6299212598425197
    },
    {
        "duration": 0.06944437499999978,
        "durationTicks": 1920,
        "midi": 44,
        "name": "G#2",
        "ticks": 153600,
        "time": 5.55555,
        "velocity": 0.6299212598425197
    },
    {
        "duration": 0.039930515625000496,
        "durationTicks": 1104,
        "midi": 44,
        "name": "G#2",
        "ticks": 157440,
        "time": 5.69443875,
        "velocity": 0.6299212598425197
    },
    {
        "duration": 0.06944437499999978,
        "durationTicks": 1920,
        "midi": 44,
        "name": "G#2",
        "ticks": 158545,
        "time": 5.734405434570313,
        "velocity": 0.6299212598425197
    },
    {
        "duration": 0.06944437499999978,
        "durationTicks": 1920,
        "midi": 36,
        "name": "C2",
        "ticks": 161280,
        "time": 5.8333275,
        "velocity": 0.6299212598425197
    },
    {
        "duration": 0.06944437499999978,
        "durationTicks": 1920,
        "midi": 44,
        "name": "G#2",
        "ticks": 161280,
        "time": 5.8333275,
        "velocity": 0.6299212598425197
    },
    {
        "duration": 0.06944437499999978,
        "durationTicks": 1920,
        "midi": 37,
        "name": "C#2",
        "ticks": 168960,
        "time": 6.111105,
        "velocity": 0.6299212598425197
    },
    {
        "duration": 0.06944437499999978,
        "durationTicks": 1920,
        "midi": 44,
        "name": "G#2",
        "ticks": 168960,
        "time": 6.111105,
        "velocity": 0.6299212598425197
    },
    {
        "duration": 0.06944437500000067,
        "durationTicks": 1920,
        "midi": 44,
        "name": "G#2",
        "ticks": 172800,
        "time": 6.24999375,
        "velocity": 0.6299212598425197
    },
    {
        "duration": 0.06944437499999978,
        "durationTicks": 1920,
        "midi": 44,
        "name": "G#2",
        "ticks": 176640,
        "time": 6.3888825,
        "velocity": 0.6299212598425197
    },
    {
        "duration": 0.06944437499999978,
        "durationTicks": 1920,
        "midi": 36,
        "name": "C2",
        "ticks": 184320,
        "time": 6.66666,
        "velocity": 0.6299212598425197
    },
    {
        "duration": 0.06944437499999978,
        "durationTicks": 1920,
        "midi": 44,
        "name": "G#2",
        "ticks": 184320,
        "time": 6.66666,
        "velocity": 0.6299212598425197
    },
    {
        "duration": 0.06944437499999978,
        "durationTicks": 1920,
        "midi": 44,
        "name": "G#2",
        "ticks": 192000,
        "time": 6.9444375,
        "velocity": 0.6299212598425197
    },
    {
        "duration": 0.06944437499999978,
        "durationTicks": 1920,
        "midi": 37,
        "name": "C#2",
        "ticks": 199680,
        "time": 7.222215,
        "velocity": 0.6299212598425197
    },
    {
        "duration": 0.06944437499999978,
        "durationTicks": 1920,
        "midi": 44,
        "name": "G#2",
        "ticks": 199680,
        "time": 7.222215,
        "velocity": 0.6299212598425197
    },
    {
        "duration": 0.06944437499999978,
        "durationTicks": 1920,
        "midi": 44,
        "name": "G#2",
        "ticks": 207360,
        "time": 7.4999925,
        "velocity": 0.6299212598425197
    },
    {
        "duration": 0.06944437499999978,
        "durationTicks": 1920,
        "midi": 36,
        "name": "C2",
        "ticks": 211200,
        "time": 7.638881250000001,
        "velocity": 0.6299212598425197
    },
    {
        "duration": 0.06944437499999978,
        "durationTicks": 1920,
        "midi": 36,
        "name": "C2",
        "ticks": 215040,
        "time": 7.77777,
        "velocity": 0.6299212598425197
    },
    {
        "duration": 0.06944437499999978,
        "durationTicks": 1920,
        "midi": 44,
        "name": "G#2",
        "ticks": 215040,
        "time": 7.77777,
        "velocity": 0.6299212598425197
    },
    {
        "duration": 0.06944437500000067,
        "durationTicks": 1920,
        "midi": 37,
        "name": "C#2",
        "ticks": 218880,
        "time": 7.91665875,
        "velocity": 0.6299212598425197
    },
    {
        "duration": 0.06944437500000156,
        "durationTicks": 1920,
        "midi": 36,
        "name": "C2",
        "ticks": 222720,
        "time": 8.0555475,
        "velocity": 0.6299212598425197
    },
    {
        "duration": 0.06944437500000156,
        "durationTicks": 1920,
        "midi": 44,
        "name": "G#2",
        "ticks": 222720,
        "time": 8.0555475,
        "velocity": 0.6299212598425197
    },
    {
        "duration": 0.06944437499999978,
        "durationTicks": 1920,
        "midi": 37,
        "name": "C#2",
        "ticks": 230400,
        "time": 8.333325,
        "velocity": 0.6299212598425197
    },
    {
        "duration": 0.06944437499999978,
        "durationTicks": 1920,
        "midi": 44,
        "name": "G#2",
        "ticks": 230400,
        "time": 8.333325,
        "velocity": 0.6299212598425197
    },
    {
        "duration": 0.039930515625000496,
        "durationTicks": 1104,
        "midi": 44,
        "name": "G#2",
        "ticks": 234240,
        "time": 8.47221375,
        "velocity": 0.6299212598425197
    },
    {
        "duration": 0.06944437499999978,
        "durationTicks": 1920,
        "midi": 44,
        "name": "G#2",
        "ticks": 235345,
        "time": 8.512180434570313,
        "velocity": 0.6299212598425197
    },
    {
        "duration": 0.06944437499999978,
        "durationTicks": 1920,
        "midi": 36,
        "name": "C2",
        "ticks": 238080,
        "time": 8.611102500000001,
        "velocity": 0.6299212598425197
    },
    {
        "duration": 0.06944437499999978,
        "durationTicks": 1920,
        "midi": 44,
        "name": "G#2",
        "ticks": 238080,
        "time": 8.611102500000001,
        "velocity": 0.6299212598425197
    },
    {
        "duration": 0.06944437499999978,
        "durationTicks": 1920,
        "midi": 37,
        "name": "C#2",
        "ticks": 241920,
        "time": 8.74999125,
        "velocity": 0.6299212598425197
    },
    {
        "duration": 0.06944437499999978,
        "durationTicks": 1920,
        "midi": 36,
        "name": "C2",
        "ticks": 245760,
        "time": 8.88888,
        "velocity": 0.6299212598425197
    },
    {
        "duration": 0.06944437499999978,
        "durationTicks": 1920,
        "midi": 44,
        "name": "G#2",
        "ticks": 245760,
        "time": 8.88888,
        "velocity": 0.6299212598425197
    },
    {
        "duration": 0.06944437500000156,
        "durationTicks": 1920,
        "midi": 44,
        "name": "G#2",
        "ticks": 253440,
        "time": 9.1666575,
        "velocity": 0.6299212598425197
    },
    {
        "duration": 0.06944437499999978,
        "durationTicks": 1920,
        "midi": 37,
        "name": "C#2",
        "ticks": 261120,
        "time": 9.444435,
        "velocity": 0.6299212598425197
    },
    {
        "duration": 0.06944437499999978,
        "durationTicks": 1920,
        "midi": 44,
        "name": "G#2",
        "ticks": 261120,
        "time": 9.444435,
        "velocity": 0.6299212598425197
    },
    {
        "duration": 0.06944437499999978,
        "durationTicks": 1920,
        "midi": 44,
        "name": "G#2",
        "ticks": 268800,
        "time": 9.722212500000001,
        "velocity": 0.6299212598425197
    },
    {
        "duration": 0.06944437499999978,
        "durationTicks": 1920,
        "midi": 36,
        "name": "C2",
        "ticks": 272640,
        "time": 9.86110125,
        "velocity": 0.6299212598425197
    },
    {
        "duration": 0.06944437499999978,
        "durationTicks": 1920,
        "midi": 36,
        "name": "C2",
        "ticks": 276480,
        "time": 9.99999,
        "velocity": 0.6299212598425197
    },
    {
        "duration": 0.06944437499999978,
        "durationTicks": 1920,
        "midi": 44,
        "name": "G#2",
        "ticks": 276480,
        "time": 9.99999,
        "velocity": 0.6299212598425197
    },
    {
        "duration": 0.06944437500000156,
        "durationTicks": 1920,
        "midi": 36,
        "name": "C2",
        "ticks": 284160,
        "time": 10.2777675,
        "velocity": 0.6299212598425197
    },
    {
        "duration": 0.06944437500000156,
        "durationTicks": 1920,
        "midi": 44,
        "name": "G#2",
        "ticks": 284160,
        "time": 10.2777675,
        "velocity": 0.6299212598425197
    },
    {
        "duration": 0.06944437499999978,
        "durationTicks": 1920,
        "midi": 37,
        "name": "C#2",
        "ticks": 291840,
        "time": 10.555545,
        "velocity": 0.6299212598425197
    },
    {
        "duration": 0.06944437499999978,
        "durationTicks": 1920,
        "midi": 44,
        "name": "G#2",
        "ticks": 291840,
        "time": 10.555545,
        "velocity": 0.6299212598425197
    },
    {
        "duration": 0.039930515625000496,
        "durationTicks": 1104,
        "midi": 44,
        "name": "G#2",
        "ticks": 295680,
        "time": 10.69443375,
        "velocity": 0.6299212598425197
    },
    {
        "duration": 0.06944437499999978,
        "durationTicks": 1920,
        "midi": 44,
        "name": "G#2",
        "ticks": 296785,
        "time": 10.734400434570313,
        "velocity": 0.6299212598425197
    },
    {
        "duration": 0.06944437499999978,
        "durationTicks": 1920,
        "midi": 44,
        "name": "G#2",
        "ticks": 299520,
        "time": 10.833322500000001,
        "velocity": 0.6299212598425197
    },
    {
        "duration": 0.06944437499999978,
        "durationTicks": 1920,
        "midi": 36,
        "name": "C2",
        "ticks": 307200,
        "time": 11.1111,
        "velocity": 0.6299212598425197
    },
    {
        "duration": 0.06944437499999978,
        "durationTicks": 1920,
        "midi": 44,
        "name": "G#2",
        "ticks": 307200,
        "time": 11.1111,
        "velocity": 0.6299212598425197
    },
    {
        "duration": 0.06944437500000156,
        "durationTicks": 1920,
        "midi": 44,
        "name": "G#2",
        "ticks": 314880,
        "time": 11.3888775,
        "velocity": 0.6299212598425197
    },
    {
        "duration": 0.03993051562499872,
        "durationTicks": 1104,
        "midi": 44,
        "name": "G#2",
        "ticks": 318720,
        "time": 11.52776625,
        "velocity": 0.6299212598425197
    },
    {
        "duration": 0.06944437499999978,
        "durationTicks": 1920,
        "midi": 44,
        "name": "G#2",
        "ticks": 319825,
        "time": 11.567732934570314,
        "velocity": 0.6299212598425197
    },
    {
        "duration": 0.06944437499999978,
        "durationTicks": 1920,
        "midi": 37,
        "name": "C#2",
        "ticks": 322560,
        "time": 11.666655,
        "velocity": 0.6299212598425197
    },
    {
        "duration": 0.06944437499999978,
        "durationTicks": 1920,
        "midi": 44,
        "name": "G#2",
        "ticks": 322560,
        "time": 11.666655,
        "velocity": 0.6299212598425197
    },
    {
        "duration": 0.06944437499999978,
        "durationTicks": 1920,
        "midi": 44,
        "name": "G#2",
        "ticks": 330240,
        "time": 11.944432500000001,
        "velocity": 0.6299212598425197
    },
    {
        "duration": 0.06944437499999978,
        "durationTicks": 1920,
        "midi": 36,
        "name": "C2",
        "ticks": 334080,
        "time": 12.083321250000001,
        "velocity": 0.6299212598425197
    },
    {
        "duration": 0.06944437499999978,
        "durationTicks": 1920,
        "midi": 36,
        "name": "C2",
        "ticks": 337920,
        "time": 12.22221,
        "velocity": 0.6299212598425197
    },
    {
        "duration": 0.06944437499999978,
        "durationTicks": 1920,
        "midi": 44,
        "name": "G#2",
        "ticks": 337920,
        "time": 12.22221,
        "velocity": 0.6299212598425197
    },
    {
        "duration": 0.06944437500000156,
        "durationTicks": 1920,
        "midi": 36,
        "name": "C2",
        "ticks": 345600,
        "time": 12.4999875,
        "velocity": 0.6299212598425197
    },
    {
        "duration": 0.06944437500000156,
        "durationTicks": 1920,
        "midi": 44,
        "name": "G#2",
        "ticks": 345600,
        "time": 12.4999875,
        "velocity": 0.6299212598425197
    },
    {
        "duration": 0.06944437499999978,
        "durationTicks": 1920,
        "midi": 37,
        "name": "C#2",
        "ticks": 353280,
        "time": 12.777765,
        "velocity": 0.6299212598425197
    },
    {
        "duration": 0.06944437499999978,
        "durationTicks": 1920,
        "midi": 44,
        "name": "G#2",
        "ticks": 353280,
        "time": 12.777765,
        "velocity": 0.6299212598425197
    },
    {
        "duration": 0.039930515625000496,
        "durationTicks": 1104,
        "midi": 44,
        "name": "G#2",
        "ticks": 357120,
        "time": 12.91665375,
        "velocity": 0.6299212598425197
    },
    {
        "duration": 0.06944437499999978,
        "durationTicks": 1920,
        "midi": 44,
        "name": "G#2",
        "ticks": 358225,
        "time": 12.956620434570313,
        "velocity": 0.6299212598425197
    },
    {
        "duration": 0.06944437499999978,
        "durationTicks": 1920,
        "midi": 44,
        "name": "G#2",
        "ticks": 360960,
        "time": 13.055542500000001,
        "velocity": 0.6299212598425197
    },
    {
        "duration": 0.06944437499999978,
        "durationTicks": 1920,
        "midi": 36,
        "name": "C2",
        "ticks": 368640,
        "time": 13.33332,
        "velocity": 0.6299212598425197
    },
    {
        "duration": 0.06944437499999978,
        "durationTicks": 1920,
        "midi": 44,
        "name": "G#2",
        "ticks": 368640,
        "time": 13.33332,
        "velocity": 0.6299212598425197
    },
    {
        "duration": 0.06944437500000156,
        "durationTicks": 1920,
        "midi": 44,
        "name": "G#2",
        "ticks": 376320,
        "time": 13.6110975,
        "velocity": 0.6299212598425197
    },
    {
        "duration": 0.03993051562499872,
        "durationTicks": 1104,
        "midi": 44,
        "name": "G#2",
        "ticks": 380160,
        "time": 13.749986250000001,
        "velocity": 0.6299212598425197
    },
    {
        "duration": 0.06944437499999978,
        "durationTicks": 1920,
        "midi": 44,
        "name": "G#2",
        "ticks": 381265,
        "time": 13.789952934570314,
        "velocity": 0.6299212598425197
    },
    {
        "duration": 0.06944437499999978,
        "durationTicks": 1920,
        "midi": 37,
        "name": "C#2",
        "ticks": 384000,
        "time": 13.888875,
        "velocity": 0.6299212598425197
    },
    {
        "duration": 0.06944437499999978,
        "durationTicks": 1920,
        "midi": 44,
        "name": "G#2",
        "ticks": 384000,
        "time": 13.888875,
        "velocity": 0.6299212598425197
    },
    {
        "duration": 0.06944437499999978,
        "durationTicks": 1920,
        "midi": 44,
        "name": "G#2",
        "ticks": 391680,
        "time": 14.166652500000001,
        "velocity": 0.6299212598425197
    },
    {
        "duration": 0.06944437499999978,
        "durationTicks": 1920,
        "midi": 36,
        "name": "C2",
        "ticks": 395520,
        "time": 14.305541250000001,
        "velocity": 0.6299212598425197
    },
    {
        "duration": 0.06944437499999978,
        "durationTicks": 1920,
        "midi": 36,
        "name": "C2",
        "ticks": 399360,
        "time": 14.44443,
        "velocity": 0.6299212598425197
    },
    {
        "duration": 0.06944437499999978,
        "durationTicks": 1920,
        "midi": 44,
        "name": "G#2",
        "ticks": 399360,
        "time": 14.44443,
        "velocity": 0.6299212598425197
    },
    {
        "duration": 0.039930515625000496,
        "durationTicks": 1104,
        "midi": 44,
        "name": "G#2",
        "ticks": 403200,
        "time": 14.58331875,
        "velocity": 0.6299212598425197
    },
    {
        "duration": 0.06944437499999978,
        "durationTicks": 1920,
        "midi": 44,
        "name": "G#2",
        "ticks": 404305,
        "time": 14.623285434570313,
        "velocity": 0.6299212598425197
    },
    {
        "duration": 0.06944437500000156,
        "durationTicks": 1920,
        "midi": 36,
        "name": "C2",
        "ticks": 407040,
        "time": 14.7222075,
        "velocity": 0.6299212598425197
    },
    {
        "duration": 0.06944437500000156,
        "durationTicks": 1920,
        "midi": 44,
        "name": "G#2",
        "ticks": 407040,
        "time": 14.7222075,
        "velocity": 0.6299212598425197
    },
    {
        "duration": 0.06944437499999978,
        "durationTicks": 1920,
        "midi": 37,
        "name": "C#2",
        "ticks": 414720,
        "time": 14.999985,
        "velocity": 0.6299212598425197
    },
    {
        "duration": 0.06944437499999978,
        "durationTicks": 1920,
        "midi": 44,
        "name": "G#2",
        "ticks": 414720,
        "time": 14.999985,
        "velocity": 0.6299212598425197
    },
    {
        "duration": 0.06944437499999978,
        "durationTicks": 1920,
        "midi": 44,
        "name": "G#2",
        "ticks": 418560,
        "time": 15.13887375,
        "velocity": 0.6299212598425197
    },
    {
        "duration": 0.06944437499999978,
        "durationTicks": 1920,
        "midi": 44,
        "name": "G#2",
        "ticks": 422400,
        "time": 15.277762500000001,
        "velocity": 0.6299212598425197
    },
    {
        "duration": 0.06944437499999978,
        "durationTicks": 1920,
        "midi": 36,
        "name": "C2",
        "ticks": 430080,
        "time": 15.55554,
        "velocity": 0.6299212598425197
    },
    {
        "duration": 0.06944437499999978,
        "durationTicks": 1920,
        "midi": 44,
        "name": "G#2",
        "ticks": 430080,
        "time": 15.55554,
        "velocity": 0.6299212598425197
    },
    {
        "duration": 0.06944437500000156,
        "durationTicks": 1920,
        "midi": 44,
        "name": "G#2",
        "ticks": 437760,
        "time": 15.8333175,
        "velocity": 0.6299212598425197
    },
    {
        "duration": 0.06944437500000333,
        "durationTicks": 1920,
        "midi": 37,
        "name": "C#2",
        "ticks": 445440,
        "time": 16.111095,
        "velocity": 0.6299212598425197
    },
    {
        "duration": 0.06944437500000333,
        "durationTicks": 1920,
        "midi": 44,
        "name": "G#2",
        "ticks": 445440,
        "time": 16.111095,
        "velocity": 0.6299212598425197
    },
    {
        "duration": 0.06944437499999978,
        "durationTicks": 1920,
        "midi": 44,
        "name": "G#2",
        "ticks": 453120,
        "time": 16.3888725,
        "velocity": 0.6299212598425197
    },
    {
        "duration": 0.06944437499999978,
        "durationTicks": 1920,
        "midi": 36,
        "name": "C2",
        "ticks": 456960,
        "time": 16.52776125,
        "velocity": 0.6299212598425197
    },
    {
        "duration": 0.06944437499999978,
        "durationTicks": 1920,
        "midi": 36,
        "name": "C2",
        "ticks": 460800,
        "time": 16.66665,
        "velocity": 0.6299212598425197
    },
    {
        "duration": 0.06944437499999978,
        "durationTicks": 1920,
        "midi": 44,
        "name": "G#2",
        "ticks": 460800,
        "time": 16.66665,
        "velocity": 0.6299212598425197
    },
    {
        "duration": 0.06944437499999978,
        "durationTicks": 1920,
        "midi": 37,
        "name": "C#2",
        "ticks": 464640,
        "time": 16.80553875,
        "velocity": 0.6299212598425197
    },
    {
        "duration": 0.06944437499999978,
        "durationTicks": 1920,
        "midi": 36,
        "name": "C2",
        "ticks": 468480,
        "time": 16.9444275,
        "velocity": 0.6299212598425197
    },
    {
        "duration": 0.06944437499999978,
        "durationTicks": 1920,
        "midi": 44,
        "name": "G#2",
        "ticks": 468480,
        "time": 16.9444275,
        "velocity": 0.6299212598425197
    },
    {
        "duration": 0.06944437499999978,
        "durationTicks": 1920,
        "midi": 37,
        "name": "C#2",
        "ticks": 476160,
        "time": 17.222205000000002,
        "velocity": 0.6299212598425197
    },
    {
        "duration": 0.06944437499999978,
        "durationTicks": 1920,
        "midi": 44,
        "name": "G#2",
        "ticks": 476160,
        "time": 17.222205000000002,
        "velocity": 0.6299212598425197
    },
    {
        "duration": 0.03993051562499872,
        "durationTicks": 1104,
        "midi": 44,
        "name": "G#2",
        "ticks": 480000,
        "time": 17.361093750000002,
        "velocity": 0.6299212598425197
    },
    {
        "duration": 0.06944437499999978,
        "durationTicks": 1920,
        "midi": 44,
        "name": "G#2",
        "ticks": 481105,
        "time": 17.401060434570315,
        "velocity": 0.6299212598425197
    },
    {
        "duration": 0.06944437499999978,
        "durationTicks": 1920,
        "midi": 36,
        "name": "C2",
        "ticks": 483840,
        "time": 17.4999825,
        "velocity": 0.6299212598425197
    },
    {
        "duration": 0.06944437499999978,
        "durationTicks": 1920,
        "midi": 44,
        "name": "G#2",
        "ticks": 483840,
        "time": 17.4999825,
        "velocity": 0.6299212598425197
    },
    {
        "duration": 0.06944437499999978,
        "durationTicks": 1920,
        "midi": 37,
        "name": "C#2",
        "ticks": 487680,
        "time": 17.63887125,
        "velocity": 0.6299212598425197
    },
    {
        "duration": 0.06944437499999978,
        "durationTicks": 1920,
        "midi": 36,
        "name": "C2",
        "ticks": 491520,
        "time": 17.77776,
        "velocity": 0.6299212598425197
    },
    {
        "duration": 0.06944437499999978,
        "durationTicks": 1920,
        "midi": 44,
        "name": "G#2",
        "ticks": 491520,
        "time": 17.77776,
        "velocity": 0.6299212598425197
    },
    {
        "duration": 0.06944437499999978,
        "durationTicks": 1920,
        "midi": 44,
        "name": "G#2",
        "ticks": 499200,
        "time": 18.0555375,
        "velocity": 0.6299212598425197
    },
    {
        "duration": 0.06944437500000333,
        "durationTicks": 1920,
        "midi": 37,
        "name": "C#2",
        "ticks": 506880,
        "time": 18.333315,
        "velocity": 0.6299212598425197
    },
    {
        "duration": 0.06944437500000333,
        "durationTicks": 1920,
        "midi": 44,
        "name": "G#2",
        "ticks": 506880,
        "time": 18.333315,
        "velocity": 0.6299212598425197
    },
    {
        "duration": 0.06944437499999978,
        "durationTicks": 1920,
        "midi": 44,
        "name": "G#2",
        "ticks": 514560,
        "time": 18.6110925,
        "velocity": 0.6299212598425197
    },
    {
        "duration": 0.06944437499999978,
        "durationTicks": 1920,
        "midi": 36,
        "name": "C2",
        "ticks": 518400,
        "time": 18.74998125,
        "velocity": 0.6299212598425197
    },
    {
        "duration": 0.06944437499999978,
        "durationTicks": 1920,
        "midi": 36,
        "name": "C2",
        "ticks": 522240,
        "time": 18.88887,
        "velocity": 0.6299212598425197
    },
    {
        "duration": 0.06944437499999978,
        "durationTicks": 1920,
        "midi": 44,
        "name": "G#2",
        "ticks": 522240,
        "time": 18.88887,
        "velocity": 0.6299212598425197
    },
    {
        "duration": 0.06944437499999978,
        "durationTicks": 1920,
        "midi": 36,
        "name": "C2",
        "ticks": 529920,
        "time": 19.1666475,
        "velocity": 0.6299212598425197
    },
    {
        "duration": 0.06944437499999978,
        "durationTicks": 1920,
        "midi": 44,
        "name": "G#2",
        "ticks": 529920,
        "time": 19.1666475,
        "velocity": 0.6299212598425197
    },
    {
        "duration": 0.06944437499999978,
        "durationTicks": 1920,
        "midi": 37,
        "name": "C#2",
        "ticks": 537600,
        "time": 19.444425000000003,
        "velocity": 0.6299212598425197
    },
    {
        "duration": 0.06944437499999978,
        "durationTicks": 1920,
        "midi": 44,
        "name": "G#2",
        "ticks": 537600,
        "time": 19.444425000000003,
        "velocity": 0.6299212598425197
    },
    {
        "duration": 0.03993051562499872,
        "durationTicks": 1104,
        "midi": 44,
        "name": "G#2",
        "ticks": 541440,
        "time": 19.583313750000002,
        "velocity": 0.6299212598425197
    },
    {
        "duration": 0.06944437499999978,
        "durationTicks": 1920,
        "midi": 44,
        "name": "G#2",
        "ticks": 542545,
        "time": 19.62328043457031,
        "velocity": 0.6299212598425197
    },
    {
        "duration": 0.06944437499999978,
        "durationTicks": 1920,
        "midi": 44,
        "name": "G#2",
        "ticks": 545280,
        "time": 19.7222025,
        "velocity": 0.6299212598425197
    },
    {
        "duration": 0.06944437499999978,
        "durationTicks": 1920,
        "midi": 36,
        "name": "C2",
        "ticks": 552960,
        "time": 19.99998,
        "velocity": 0.6299212598425197
    },
    {
        "duration": 0.06944437499999978,
        "durationTicks": 1920,
        "midi": 44,
        "name": "G#2",
        "ticks": 552960,
        "time": 19.99998,
        "velocity": 0.6299212598425197
    },
    {
        "duration": 0.06944437499999978,
        "durationTicks": 1920,
        "midi": 44,
        "name": "G#2",
        "ticks": 560640,
        "time": 20.2777575,
        "velocity": 0.6299212598425197
    },
    {
        "duration": 0.03993051562500227,
        "durationTicks": 1104,
        "midi": 44,
        "name": "G#2",
        "ticks": 564480,
        "time": 20.41664625,
        "velocity": 0.6299212598425197
    },
    {
        "duration": 0.06944437499999978,
        "durationTicks": 1920,
        "midi": 44,
        "name": "G#2",
        "ticks": 565585,
        "time": 20.456612934570312,
        "velocity": 0.6299212598425197
    },
    {
        "duration": 0.06944437500000333,
        "durationTicks": 1920,
        "midi": 37,
        "name": "C#2",
        "ticks": 568320,
        "time": 20.555535,
        "velocity": 0.6299212598425197
    },
    {
        "duration": 0.06944437500000333,
        "durationTicks": 1920,
        "midi": 44,
        "name": "G#2",
        "ticks": 568320,
        "time": 20.555535,
        "velocity": 0.6299212598425197
    },
    {
        "duration": 0.06944437499999978,
        "durationTicks": 1920,
        "midi": 44,
        "name": "G#2",
        "ticks": 576000,
        "time": 20.8333125,
        "velocity": 0.6299212598425197
    },
    {
        "duration": 0.06944437499999978,
        "durationTicks": 1920,
        "midi": 36,
        "name": "C2",
        "ticks": 579840,
        "time": 20.97220125,
        "velocity": 0.6299212598425197
    },
    {
        "duration": 0.06944437499999978,
        "durationTicks": 1920,
        "midi": 36,
        "name": "C2",
        "ticks": 583680,
        "time": 21.11109,
        "velocity": 0.6299212598425197
    },
    {
        "duration": 0.06944437499999978,
        "durationTicks": 1920,
        "midi": 44,
        "name": "G#2",
        "ticks": 583680,
        "time": 21.11109,
        "velocity": 0.6299212598425197
    },
    {
        "duration": 0.06944437499999978,
        "durationTicks": 1920,
        "midi": 36,
        "name": "C2",
        "ticks": 591360,
        "time": 21.3888675,
        "velocity": 0.6299212598425197
    },
    {
        "duration": 0.06944437499999978,
        "durationTicks": 1920,
        "midi": 44,
        "name": "G#2",
        "ticks": 591360,
        "time": 21.3888675,
        "velocity": 0.6299212598425197
    },
    {
        "duration": 0.06944437499999978,
        "durationTicks": 1920,
        "midi": 37,
        "name": "C#2",
        "ticks": 599040,
        "time": 21.666645000000003,
        "velocity": 0.6299212598425197
    },
    {
        "duration": 0.06944437499999978,
        "durationTicks": 1920,
        "midi": 44,
        "name": "G#2",
        "ticks": 599040,
        "time": 21.666645000000003,
        "velocity": 0.6299212598425197
    },
    {
        "duration": 0.03993051562499872,
        "durationTicks": 1104,
        "midi": 44,
        "name": "G#2",
        "ticks": 602880,
        "time": 21.805533750000002,
        "velocity": 0.6299212598425197
    },
    {
        "duration": 0.06944437499999978,
        "durationTicks": 1920,
        "midi": 44,
        "name": "G#2",
        "ticks": 603985,
        "time": 21.84550043457031,
        "velocity": 0.6299212598425197
    },
    {
        "duration": 0.06944437499999978,
        "durationTicks": 1920,
        "midi": 44,
        "name": "G#2",
        "ticks": 606720,
        "time": 21.9444225,
        "velocity": 0.6299212598425197
    },
    {
        "duration": 0.06944437499999978,
        "durationTicks": 1920,
        "midi": 36,
        "name": "C2",
        "ticks": 614400,
        "time": 22.2222,
        "velocity": 0.6299212598425197
    },
    {
        "duration": 0.06944437499999978,
        "durationTicks": 1920,
        "midi": 44,
        "name": "G#2",
        "ticks": 614400,
        "time": 22.2222,
        "velocity": 0.6299212598425197
    },
    {
        "duration": 0.06944437499999978,
        "durationTicks": 1920,
        "midi": 44,
        "name": "G#2",
        "ticks": 622080,
        "time": 22.4999775,
        "velocity": 0.6299212598425197
    },
    {
        "duration": 0.03993051562500227,
        "durationTicks": 1104,
        "midi": 44,
        "name": "G#2",
        "ticks": 625920,
        "time": 22.63886625,
        "velocity": 0.6299212598425197
    },
    {
        "duration": 0.06944437499999978,
        "durationTicks": 1920,
        "midi": 44,
        "name": "G#2",
        "ticks": 627025,
        "time": 22.678832934570313,
        "velocity": 0.6299212598425197
    },
    {
        "duration": 0.06944437500000333,
        "durationTicks": 1920,
        "midi": 37,
        "name": "C#2",
        "ticks": 629760,
        "time": 22.777755,
        "velocity": 0.6299212598425197
    },
    {
        "duration": 0.06944437500000333,
        "durationTicks": 1920,
        "midi": 44,
        "name": "G#2",
        "ticks": 629760,
        "time": 22.777755,
        "velocity": 0.6299212598425197
    },
    {
        "duration": 0.06944437499999978,
        "durationTicks": 1920,
        "midi": 44,
        "name": "G#2",
        "ticks": 637440,
        "time": 23.0555325,
        "velocity": 0.6299212598425197
    },
    {
        "duration": 0.06944437499999978,
        "durationTicks": 1920,
        "midi": 36,
        "name": "C2",
        "ticks": 641280,
        "time": 23.19442125,
        "velocity": 0.6299212598425197
    },
    {
        "duration": 0.06944437499999978,
        "durationTicks": 1920,
        "midi": 36,
        "name": "C2",
        "ticks": 645120,
        "time": 23.33331,
        "velocity": 0.6299212598425197
    },
    {
        "duration": 0.06944437499999978,
        "durationTicks": 1920,
        "midi": 44,
        "name": "G#2",
        "ticks": 645120,
        "time": 23.33331,
        "velocity": 0.6299212598425197
    },
    {
        "duration": 0.03993051562499872,
        "durationTicks": 1104,
        "midi": 44,
        "name": "G#2",
        "ticks": 648960,
        "time": 23.47219875,
        "velocity": 0.6299212598425197
    },
    {
        "duration": 0.06944437499999978,
        "durationTicks": 1920,
        "midi": 44,
        "name": "G#2",
        "ticks": 650065,
        "time": 23.512165434570313,
        "velocity": 0.6299212598425197
    },
    {
        "duration": 0.06944437499999978,
        "durationTicks": 1920,
        "midi": 36,
        "name": "C2",
        "ticks": 652800,
        "time": 23.6110875,
        "velocity": 0.6299212598425197
    },
    {
        "duration": 0.06944437499999978,
        "durationTicks": 1920,
        "midi": 44,
        "name": "G#2",
        "ticks": 652800,
        "time": 23.6110875,
        "velocity": 0.6299212598425197
    },
    {
        "duration": 0.06944437499999978,
        "durationTicks": 1920,
        "midi": 37,
        "name": "C#2",
        "ticks": 660480,
        "time": 23.888865000000003,
        "velocity": 0.6299212598425197
    },
    {
        "duration": 0.06944437499999978,
        "durationTicks": 1920,
        "midi": 44,
        "name": "G#2",
        "ticks": 660480,
        "time": 23.888865000000003,
        "velocity": 0.6299212598425197
    },
    {
        "duration": 0.06944437499999978,
        "durationTicks": 1920,
        "midi": 44,
        "name": "G#2",
        "ticks": 664320,
        "time": 24.027753750000002,
        "velocity": 0.6299212598425197
    },
    {
        "duration": 0.06944437499999978,
        "durationTicks": 1920,
        "midi": 44,
        "name": "G#2",
        "ticks": 668160,
        "time": 24.166642500000002,
        "velocity": 0.6299212598425197
    },
    {
        "duration": 0.06944437499999978,
        "durationTicks": 1920,
        "midi": 36,
        "name": "C2",
        "ticks": 675840,
        "time": 24.44442,
        "velocity": 0.6299212598425197
    },
    {
        "duration": 0.06944437499999978,
        "durationTicks": 1920,
        "midi": 44,
        "name": "G#2",
        "ticks": 675840,
        "time": 24.44442,
        "velocity": 0.6299212598425197
    },
    {
        "duration": 0.06944437499999978,
        "durationTicks": 1920,
        "midi": 44,
        "name": "G#2",
        "ticks": 683520,
        "time": 24.7221975,
        "velocity": 0.6299212598425197
    },
    {
        "duration": 0.06944437500000333,
        "durationTicks": 1920,
        "midi": 37,
        "name": "C#2",
        "ticks": 691200,
        "time": 24.999975,
        "velocity": 0.6299212598425197
    },
    {
        "duration": 0.06944437500000333,
        "durationTicks": 1920,
        "midi": 44,
        "name": "G#2",
        "ticks": 691200,
        "time": 24.999975,
        "velocity": 0.6299212598425197
    },
    {
        "duration": 0.06944437499999978,
        "durationTicks": 1920,
        "midi": 44,
        "name": "G#2",
        "ticks": 698880,
        "time": 25.277752500000002,
        "velocity": 0.6299212598425197
    },
    {
        "duration": 0.06944437499999978,
        "durationTicks": 1920,
        "midi": 36,
        "name": "C2",
        "ticks": 702720,
        "time": 25.41664125,
        "velocity": 0.6299212598425197
    },
    {
        "duration": 0.06944437499999978,
        "durationTicks": 1920,
        "midi": 36,
        "name": "C2",
        "ticks": 706560,
        "time": 25.55553,
        "velocity": 0.6299212598425197
    },
    {
        "duration": 0.06944437499999978,
        "durationTicks": 1920,
        "midi": 44,
        "name": "G#2",
        "ticks": 706560,
        "time": 25.55553,
        "velocity": 0.6299212598425197
    },
    {
        "duration": 0.06944437499999978,
        "durationTicks": 1920,
        "midi": 37,
        "name": "C#2",
        "ticks": 710400,
        "time": 25.69441875,
        "velocity": 0.6299212598425197
    },
    {
        "duration": 0.06944437499999978,
        "durationTicks": 1920,
        "midi": 36,
        "name": "C2",
        "ticks": 714240,
        "time": 25.8333075,
        "velocity": 0.6299212598425197
    },
    {
        "duration": 0.06944437499999978,
        "durationTicks": 1920,
        "midi": 44,
        "name": "G#2",
        "ticks": 714240,
        "time": 25.8333075,
        "velocity": 0.6299212598425197
    },
    {
        "duration": 0.06944437499999978,
        "durationTicks": 1920,
        "midi": 37,
        "name": "C#2",
        "ticks": 721920,
        "time": 26.111085000000003,
        "velocity": 0.6299212598425197
    },
    {
        "duration": 0.06944437499999978,
        "durationTicks": 1920,
        "midi": 44,
        "name": "G#2",
        "ticks": 721920,
        "time": 26.111085000000003,
        "velocity": 0.6299212598425197
    },
    {
        "duration": 0.03993051562499872,
        "durationTicks": 1104,
        "midi": 44,
        "name": "G#2",
        "ticks": 725760,
        "time": 26.249973750000002,
        "velocity": 0.6299212598425197
    },
    {
        "duration": 0.06944437499999978,
        "durationTicks": 1920,
        "midi": 44,
        "name": "G#2",
        "ticks": 726865,
        "time": 26.289940434570312,
        "velocity": 0.6299212598425197
    },
    {
        "duration": 0.06944437499999978,
        "durationTicks": 1920,
        "midi": 36,
        "name": "C2",
        "ticks": 729600,
        "time": 26.388862500000002,
        "velocity": 0.6299212598425197
    },
    {
        "duration": 0.06944437499999978,
        "durationTicks": 1920,
        "midi": 44,
        "name": "G#2",
        "ticks": 729600,
        "time": 26.388862500000002,
        "velocity": 0.6299212598425197
    },
    {
        "duration": 0.06944437499999978,
        "durationTicks": 1920,
        "midi": 37,
        "name": "C#2",
        "ticks": 733440,
        "time": 26.52775125,
        "velocity": 0.6299212598425197
    },
    {
        "duration": 0.06944437499999978,
        "durationTicks": 1920,
        "midi": 36,
        "name": "C2",
        "ticks": 737280,
        "time": 26.66664,
        "velocity": 0.6299212598425197
    },
    {
        "duration": 0.06944437499999978,
        "durationTicks": 1920,
        "midi": 44,
        "name": "G#2",
        "ticks": 737280,
        "time": 26.66664,
        "velocity": 0.6299212598425197
    },
    {
        "duration": 0.06944437499999978,
        "durationTicks": 1920,
        "midi": 44,
        "name": "G#2",
        "ticks": 744960,
        "time": 26.9444175,
        "velocity": 0.6299212598425197
    },
    {
        "duration": 0.06944437500000333,
        "durationTicks": 1920,
        "midi": 37,
        "name": "C#2",
        "ticks": 752640,
        "time": 27.222195,
        "velocity": 0.6299212598425197
    },
    {
        "duration": 0.06944437500000333,
        "durationTicks": 1920,
        "midi": 44,
        "name": "G#2",
        "ticks": 752640,
        "time": 27.222195,
        "velocity": 0.6299212598425197
    },
    {
        "duration": 0.06944437499999978,
        "durationTicks": 1920,
        "midi": 44,
        "name": "G#2",
        "ticks": 760320,
        "time": 27.499972500000002,
        "velocity": 0.6299212598425197
    },
    {
        "duration": 0.06944437499999978,
        "durationTicks": 1920,
        "midi": 36,
        "name": "C2",
        "ticks": 764160,
        "time": 27.63886125,
        "velocity": 0.6299212598425197
    },
    {
        "duration": 0.06944437499999978,
        "durationTicks": 1920,
        "midi": 36,
        "name": "C2",
        "ticks": 768000,
        "time": 27.77775,
        "velocity": 0.6299212598425197
    },
    {
        "duration": 0.06944437499999978,
        "durationTicks": 1920,
        "midi": 44,
        "name": "G#2",
        "ticks": 768000,
        "time": 27.77775,
        "velocity": 0.6299212598425197
    },
    {
        "duration": 0.06944437499999978,
        "durationTicks": 1920,
        "midi": 36,
        "name": "C2",
        "ticks": 775680,
        "time": 28.0555275,
        "velocity": 0.6299212598425197
    },
    {
        "duration": 0.06944437499999978,
        "durationTicks": 1920,
        "midi": 44,
        "name": "G#2",
        "ticks": 775680,
        "time": 28.0555275,
        "velocity": 0.6299212598425197
    },
    {
        "duration": 0.06944437499999978,
        "durationTicks": 1920,
        "midi": 37,
        "name": "C#2",
        "ticks": 783360,
        "time": 28.333305000000003,
        "velocity": 0.6299212598425197
    },
    {
        "duration": 0.06944437499999978,
        "durationTicks": 1920,
        "midi": 44,
        "name": "G#2",
        "ticks": 783360,
        "time": 28.333305000000003,
        "velocity": 0.6299212598425197
    },
    {
        "duration": 0.03993051562499872,
        "durationTicks": 1104,
        "midi": 44,
        "name": "G#2",
        "ticks": 787200,
        "time": 28.472193750000002,
        "velocity": 0.6299212598425197
    },
    {
        "duration": 0.06944437499999978,
        "durationTicks": 1920,
        "midi": 44,
        "name": "G#2",
        "ticks": 788305,
        "time": 28.512160434570312,
        "velocity": 0.6299212598425197
    },
    {
        "duration": 0.06944437499999978,
        "durationTicks": 1920,
        "midi": 44,
        "name": "G#2",
        "ticks": 791040,
        "time": 28.611082500000002,
        "velocity": 0.6299212598425197
    },
    {
        "duration": 0.06944437499999978,
        "durationTicks": 1920,
        "midi": 36,
        "name": "C2",
        "ticks": 798720,
        "time": 28.88886,
        "velocity": 0.6299212598425197
    },
    {
        "duration": 0.06944437499999978,
        "durationTicks": 1920,
        "midi": 44,
        "name": "G#2",
        "ticks": 798720,
        "time": 28.88886,
        "velocity": 0.6299212598425197
    },
    {
        "duration": 0.06944437499999978,
        "durationTicks": 1920,
        "midi": 44,
        "name": "G#2",
        "ticks": 806400,
        "time": 29.1666375,
        "velocity": 0.6299212598425197
    },
    {
        "duration": 0.03993051562500227,
        "durationTicks": 1104,
        "midi": 44,
        "name": "G#2",
        "ticks": 810240,
        "time": 29.30552625,
        "velocity": 0.6299212598425197
    },
    {
        "duration": 0.06944437499999978,
        "durationTicks": 1920,
        "midi": 44,
        "name": "G#2",
        "ticks": 811345,
        "time": 29.345492934570313,
        "velocity": 0.6299212598425197
    },
    {
        "duration": 0.06944437500000333,
        "durationTicks": 1920,
        "midi": 37,
        "name": "C#2",
        "ticks": 814080,
        "time": 29.444415,
        "velocity": 0.6299212598425197
    },
    {
        "duration": 0.06944437500000333,
        "durationTicks": 1920,
        "midi": 44,
        "name": "G#2",
        "ticks": 814080,
        "time": 29.444415,
        "velocity": 0.6299212598425197
    },
    {
        "duration": 0.06944437499999978,
        "durationTicks": 1920,
        "midi": 44,
        "name": "G#2",
        "ticks": 821760,
        "time": 29.722192500000002,
        "velocity": 0.6299212598425197
    },
    {
        "duration": 0.06944437499999978,
        "durationTicks": 1920,
        "midi": 36,
        "name": "C2",
        "ticks": 825600,
        "time": 29.86108125,
        "velocity": 0.6299212598425197
    },
    {
        "duration": 0.06944437499999978,
        "durationTicks": 1920,
        "midi": 36,
        "name": "C2",
        "ticks": 829440,
        "time": 29.99997,
        "velocity": 0.6299212598425197
    },
    {
        "duration": 0.06944437499999978,
        "durationTicks": 1920,
        "midi": 44,
        "name": "G#2",
        "ticks": 829440,
        "time": 29.99997,
        "velocity": 0.6299212598425197
    },
    {
        "duration": 0.06944437499999978,
        "durationTicks": 1920,
        "midi": 36,
        "name": "C2",
        "ticks": 837120,
        "time": 30.2777475,
        "velocity": 0.6299212598425197
    },
    {
        "duration": 0.06944437499999978,
        "durationTicks": 1920,
        "midi": 44,
        "name": "G#2",
        "ticks": 837120,
        "time": 30.2777475,
        "velocity": 0.6299212598425197
    },
    {
        "duration": 0.06944437499999978,
        "durationTicks": 1920,
        "midi": 37,
        "name": "C#2",
        "ticks": 844800,
        "time": 30.555525000000003,
        "velocity": 0.6299212598425197
    },
    {
        "duration": 0.06944437499999978,
        "durationTicks": 1920,
        "midi": 44,
        "name": "G#2",
        "ticks": 844800,
        "time": 30.555525000000003,
        "velocity": 0.6299212598425197
    },
    {
        "duration": 0.03993051562499872,
        "durationTicks": 1104,
        "midi": 44,
        "name": "G#2",
        "ticks": 848640,
        "time": 30.694413750000002,
        "velocity": 0.6299212598425197
    },
    {
        "duration": 0.06944437499999978,
        "durationTicks": 1920,
        "midi": 44,
        "name": "G#2",
        "ticks": 849745,
        "time": 30.734380434570312,
        "velocity": 0.6299212598425197
    },
    {
        "duration": 0.06944437499999978,
        "durationTicks": 1920,
        "midi": 44,
        "name": "G#2",
        "ticks": 852480,
        "time": 30.833302500000002,
        "velocity": 0.6299212598425197
    },
    {
        "duration": 0.06944437499999978,
        "durationTicks": 1920,
        "midi": 36,
        "name": "C2",
        "ticks": 860160,
        "time": 31.11108,
        "velocity": 0.6299212598425197
    },
    {
        "duration": 0.06944437499999978,
        "durationTicks": 1920,
        "midi": 44,
        "name": "G#2",
        "ticks": 860160,
        "time": 31.11108,
        "velocity": 0.6299212598425197
    },
    {
        "duration": 0.06944437499999978,
        "durationTicks": 1920,
        "midi": 44,
        "name": "G#2",
        "ticks": 867840,
        "time": 31.3888575,
        "velocity": 0.6299212598425197
    },
    {
        "duration": 0.03993051562500227,
        "durationTicks": 1104,
        "midi": 44,
        "name": "G#2",
        "ticks": 871680,
        "time": 31.52774625,
        "velocity": 0.6299212598425197
    },
    {
        "duration": 0.06944437499999978,
        "durationTicks": 1920,
        "midi": 44,
        "name": "G#2",
        "ticks": 872785,
        "time": 31.567712934570313,
        "velocity": 0.6299212598425197
    },
    {
        "duration": 0.06944437500000333,
        "durationTicks": 1920,
        "midi": 37,
        "name": "C#2",
        "ticks": 875520,
        "time": 31.666635,
        "velocity": 0.6299212598425197
    },
    {
        "duration": 0.06944437500000333,
        "durationTicks": 1920,
        "midi": 44,
        "name": "G#2",
        "ticks": 875520,
        "time": 31.666635,
        "velocity": 0.6299212598425197
    },
    {
        "duration": 0.06944437499999978,
        "durationTicks": 1920,
        "midi": 44,
        "name": "G#2",
        "ticks": 883200,
        "time": 31.944412500000002,
        "velocity": 0.6299212598425197
    },
    {
        "duration": 0.06944437500000333,
        "durationTicks": 1920,
        "midi": 36,
        "name": "C2",
        "ticks": 887040,
        "time": 32.08330125,
        "velocity": 0.6299212598425197
    },
    {
        "duration": 0.06944437500000333,
        "durationTicks": 1920,
        "midi": 36,
        "name": "C2",
        "ticks": 890880,
        "time": 32.22219,
        "velocity": 0.6299212598425197
    },
    {
        "duration": 0.06944437500000333,
        "durationTicks": 1920,
        "midi": 44,
        "name": "G#2",
        "ticks": 890880,
        "time": 32.22219,
        "velocity": 0.6299212598425197
    },
    {
        "duration": 0.039930515624995166,
        "durationTicks": 1104,
        "midi": 44,
        "name": "G#2",
        "ticks": 894720,
        "time": 32.361078750000004,
        "velocity": 0.6299212598425197
    },
    {
        "duration": 0.06944437499999623,
        "durationTicks": 1920,
        "midi": 44,
        "name": "G#2",
        "ticks": 895825,
        "time": 32.401045434570314,
        "velocity": 0.6299212598425197
    },
    {
        "duration": 0.06944437499999623,
        "durationTicks": 1920,
        "midi": 36,
        "name": "C2",
        "ticks": 898560,
        "time": 32.499967500000004,
        "velocity": 0.6299212598425197
    },
    {
        "duration": 0.06944437499999623,
        "durationTicks": 1920,
        "midi": 44,
        "name": "G#2",
        "ticks": 898560,
        "time": 32.499967500000004,
        "velocity": 0.6299212598425197
    },
    {
        "duration": 0.06944437499999623,
        "durationTicks": 1920,
        "midi": 37,
        "name": "C#2",
        "ticks": 906240,
        "time": 32.777745,
        "velocity": 0.6299212598425197
    },
    {
        "duration": 0.06944437499999623,
        "durationTicks": 1920,
        "midi": 44,
        "name": "G#2",
        "ticks": 906240,
        "time": 32.777745,
        "velocity": 0.6299212598425197
    },
    {
        "duration": 0.06944437499999623,
        "durationTicks": 1920,
        "midi": 44,
        "name": "G#2",
        "ticks": 910080,
        "time": 32.91663375,
        "velocity": 0.6299212598425197
    },
    {
        "duration": 0.06944437499999623,
        "durationTicks": 1920,
        "midi": 44,
        "name": "G#2",
        "ticks": 913920,
        "time": 33.0555225,
        "velocity": 0.6299212598425197
    },
    {
        "duration": 0.06944437500000333,
        "durationTicks": 1920,
        "midi": 36,
        "name": "C2",
        "ticks": 921600,
        "time": 33.3333,
        "velocity": 0.6299212598425197
    },
    {
        "duration": 0.06944437500000333,
        "durationTicks": 1920,
        "midi": 44,
        "name": "G#2",
        "ticks": 921600,
        "time": 33.3333,
        "velocity": 0.6299212598425197
    },
    {
        "duration": 0.06944437500000333,
        "durationTicks": 1920,
        "midi": 44,
        "name": "G#2",
        "ticks": 929280,
        "time": 33.6110775,
        "velocity": 0.6299212598425197
    },
    {
        "duration": 0.06944437500000333,
        "durationTicks": 1920,
        "midi": 37,
        "name": "C#2",
        "ticks": 936960,
        "time": 33.888855,
        "velocity": 0.6299212598425197
    },
    {
        "duration": 0.06944437500000333,
        "durationTicks": 1920,
        "midi": 44,
        "name": "G#2",
        "ticks": 936960,
        "time": 33.888855,
        "velocity": 0.6299212598425197
    },
    {
        "duration": 0.06944437500000333,
        "durationTicks": 1920,
        "midi": 44,
        "name": "G#2",
        "ticks": 944640,
        "time": 34.1666325,
        "velocity": 0.6299212598425197
    },
    {
        "duration": 0.06944437500000333,
        "durationTicks": 1920,
        "midi": 36,
        "name": "C2",
        "ticks": 948480,
        "time": 34.30552125,
        "velocity": 0.6299212598425197
    },
    {
        "duration": 0.06944437499999623,
        "durationTicks": 1920,
        "midi": 36,
        "name": "C2",
        "ticks": 952320,
        "time": 34.444410000000005,
        "velocity": 0.6299212598425197
    },
    {
        "duration": 0.06944437499999623,
        "durationTicks": 1920,
        "midi": 44,
        "name": "G#2",
        "ticks": 952320,
        "time": 34.444410000000005,
        "velocity": 0.6299212598425197
    },
    {
        "duration": 0.06944437499999623,
        "durationTicks": 1920,
        "midi": 37,
        "name": "C#2",
        "ticks": 956160,
        "time": 34.583298750000004,
        "velocity": 0.6299212598425197
    },
    {
        "duration": 0.06944437499999623,
        "durationTicks": 1920,
        "midi": 36,
        "name": "C2",
        "ticks": 960000,
        "time": 34.722187500000004,
        "velocity": 0.6299212598425197
    },
    {
        "duration": 0.06944437499999623,
        "durationTicks": 1920,
        "midi": 44,
        "name": "G#2",
        "ticks": 960000,
        "time": 34.722187500000004,
        "velocity": 0.6299212598425197
    },
    {
        "duration": 0.06944437499999623,
        "durationTicks": 1920,
        "midi": 37,
        "name": "C#2",
        "ticks": 967680,
        "time": 34.999965,
        "velocity": 0.6299212598425197
    },
    {
        "duration": 0.06944437499999623,
        "durationTicks": 1920,
        "midi": 44,
        "name": "G#2",
        "ticks": 967680,
        "time": 34.999965,
        "velocity": 0.6299212598425197
    },
    {
        "duration": 0.039930515624995166,
        "durationTicks": 1104,
        "midi": 44,
        "name": "G#2",
        "ticks": 971520,
        "time": 35.13885375,
        "velocity": 0.6299212598425197
    },
    {
        "duration": 0.06944437500000333,
        "durationTicks": 1920,
        "midi": 44,
        "name": "G#2",
        "ticks": 972625,
        "time": 35.17882043457031,
        "velocity": 0.6299212598425197
    },
    {
        "duration": 0.06944437499999623,
        "durationTicks": 1920,
        "midi": 36,
        "name": "C2",
        "ticks": 975360,
        "time": 35.2777425,
        "velocity": 0.6299212598425197
    },
    {
        "duration": 0.06944437499999623,
        "durationTicks": 1920,
        "midi": 44,
        "name": "G#2",
        "ticks": 975360,
        "time": 35.2777425,
        "velocity": 0.6299212598425197
    },
    {
        "duration": 0.06944437499999623,
        "durationTicks": 1920,
        "midi": 37,
        "name": "C#2",
        "ticks": 979200,
        "time": 35.41663125,
        "velocity": 0.6299212598425197
    },
    {
        "duration": 0.06944437500000333,
        "durationTicks": 1920,
        "midi": 36,
        "name": "C2",
        "ticks": 983040,
        "time": 35.55552,
        "velocity": 0.6299212598425197
    },
    {
        "duration": 0.06944437500000333,
        "durationTicks": 1920,
        "midi": 44,
        "name": "G#2",
        "ticks": 983040,
        "time": 35.55552,
        "velocity": 0.6299212598425197
    },
    {
        "duration": 0.06944437500000333,
        "durationTicks": 1920,
        "midi": 44,
        "name": "G#2",
        "ticks": 990720,
        "time": 35.8332975,
        "velocity": 0.6299212598425197
    },
    {
        "duration": 0.06944437500000333,
        "durationTicks": 1920,
        "midi": 37,
        "name": "C#2",
        "ticks": 998400,
        "time": 36.111075,
        "velocity": 0.6299212598425197
    },
    {
        "duration": 0.06944437500000333,
        "durationTicks": 1920,
        "midi": 44,
        "name": "G#2",
        "ticks": 998400,
        "time": 36.111075,
        "velocity": 0.6299212598425197
    },
    {
        "duration": 0.06944437500000333,
        "durationTicks": 1920,
        "midi": 44,
        "name": "G#2",
        "ticks": 1006080,
        "time": 36.3888525,
        "velocity": 0.6299212598425197
    },
    {
        "duration": 0.06944437500000333,
        "durationTicks": 1920,
        "midi": 36,
        "name": "C2",
        "ticks": 1009920,
        "time": 36.52774125,
        "velocity": 0.6299212598425197
    },
    {
        "duration": 0.06944437500000333,
        "durationTicks": 1920,
        "midi": 36,
        "name": "C2",
        "ticks": 1013760,
        "time": 36.66663,
        "velocity": 0.6299212598425197
    },
    {
        "duration": 0.06944437500000333,
        "durationTicks": 1920,
        "midi": 44,
        "name": "G#2",
        "ticks": 1013760,
        "time": 36.66663,
        "velocity": 0.6299212598425197
    },
    {
        "duration": 0.06944437499999623,
        "durationTicks": 1920,
        "midi": 36,
        "name": "C2",
        "ticks": 1021440,
        "time": 36.944407500000004,
        "velocity": 0.6299212598425197
    },
    {
        "duration": 0.06944437499999623,
        "durationTicks": 1920,
        "midi": 44,
        "name": "G#2",
        "ticks": 1021440,
        "time": 36.944407500000004,
        "velocity": 0.6299212598425197
    },
    {
        "duration": 0.06944437499999623,
        "durationTicks": 1920,
        "midi": 37,
        "name": "C#2",
        "ticks": 1029120,
        "time": 37.222185,
        "velocity": 0.6299212598425197
    },
    {
        "duration": 0.06944437499999623,
        "durationTicks": 1920,
        "midi": 44,
        "name": "G#2",
        "ticks": 1029120,
        "time": 37.222185,
        "velocity": 0.6299212598425197
    },
    {
        "duration": 0.03993051562500227,
        "durationTicks": 1104,
        "midi": 44,
        "name": "G#2",
        "ticks": 1032960,
        "time": 37.36107375,
        "velocity": 0.6299212598425197
    },
    {
        "duration": 0.06944437499999623,
        "durationTicks": 1920,
        "midi": 44,
        "name": "G#2",
        "ticks": 1034065,
        "time": 37.40104043457032,
        "velocity": 0.6299212598425197
    },
    {
        "duration": 0.06944437499999623,
        "durationTicks": 1920,
        "midi": 44,
        "name": "G#2",
        "ticks": 1036800,
        "time": 37.4999625,
        "velocity": 0.6299212598425197
    },
    {
        "duration": 0.06944437500000333,
        "durationTicks": 1920,
        "midi": 36,
        "name": "C2",
        "ticks": 1044480,
        "time": 37.77774,
        "velocity": 0.6299212598425197
    },
    {
        "duration": 0.06944437500000333,
        "durationTicks": 1920,
        "midi": 44,
        "name": "G#2",
        "ticks": 1044480,
        "time": 37.77774,
        "velocity": 0.6299212598425197
    },
    {
        "duration": 0.06944437500000333,
        "durationTicks": 1920,
        "midi": 44,
        "name": "G#2",
        "ticks": 1052160,
        "time": 38.0555175,
        "velocity": 0.6299212598425197
    },
    {
        "duration": 0.03993051562500227,
        "durationTicks": 1104,
        "midi": 44,
        "name": "G#2",
        "ticks": 1056000,
        "time": 38.19440625,
        "velocity": 0.6299212598425197
    },
    {
        "duration": 0.06944437500000333,
        "durationTicks": 1920,
        "midi": 44,
        "name": "G#2",
        "ticks": 1057105,
        "time": 38.23437293457032,
        "velocity": 0.6299212598425197
    },
    {
        "duration": 0.06944437500000333,
        "durationTicks": 1920,
        "midi": 37,
        "name": "C#2",
        "ticks": 1059840,
        "time": 38.333295,
        "velocity": 0.6299212598425197
    },
    {
        "duration": 0.06944437500000333,
        "durationTicks": 1920,
        "midi": 44,
        "name": "G#2",
        "ticks": 1059840,
        "time": 38.333295,
        "velocity": 0.6299212598425197
    },
    {
        "duration": 0.06944437500000333,
        "durationTicks": 1920,
        "midi": 44,
        "name": "G#2",
        "ticks": 1067520,
        "time": 38.6110725,
        "velocity": 0.6299212598425197
    },
    {
        "duration": 0.06944437500000333,
        "durationTicks": 1920,
        "midi": 36,
        "name": "C2",
        "ticks": 1071360,
        "time": 38.74996125,
        "velocity": 0.6299212598425197
    },
    {
        "duration": 0.06944437499999623,
        "durationTicks": 1920,
        "midi": 36,
        "name": "C2",
        "ticks": 1075200,
        "time": 38.888850000000005,
        "velocity": 0.6299212598425197
    },
    {
        "duration": 0.06944437499999623,
        "durationTicks": 1920,
        "midi": 44,
        "name": "G#2",
        "ticks": 1075200,
        "time": 38.888850000000005,
        "velocity": 0.6299212598425197
    },
    {
        "duration": 0.06944437499999623,
        "durationTicks": 1920,
        "midi": 36,
        "name": "C2",
        "ticks": 1082880,
        "time": 39.166627500000004,
        "velocity": 0.6299212598425197
    },
    {
        "duration": 0.06944437499999623,
        "durationTicks": 1920,
        "midi": 44,
        "name": "G#2",
        "ticks": 1082880,
        "time": 39.166627500000004,
        "velocity": 0.6299212598425197
    },
    {
        "duration": 0.06944437499999623,
        "durationTicks": 1920,
        "midi": 37,
        "name": "C#2",
        "ticks": 1090560,
        "time": 39.444405,
        "velocity": 0.6299212598425197
    },
    {
        "duration": 0.06944437499999623,
        "durationTicks": 1920,
        "midi": 44,
        "name": "G#2",
        "ticks": 1090560,
        "time": 39.444405,
        "velocity": 0.6299212598425197
    },
    {
        "duration": 0.03993051562500227,
        "durationTicks": 1104,
        "midi": 44,
        "name": "G#2",
        "ticks": 1094400,
        "time": 39.58329375,
        "velocity": 0.6299212598425197
    },
    {
        "duration": 0.06944437499999623,
        "durationTicks": 1920,
        "midi": 44,
        "name": "G#2",
        "ticks": 1095505,
        "time": 39.62326043457032,
        "velocity": 0.6299212598425197
    },
    {
        "duration": 0.06944437499999623,
        "durationTicks": 1920,
        "midi": 44,
        "name": "G#2",
        "ticks": 1098240,
        "time": 39.7221825,
        "velocity": 0.6299212598425197
    },
    {
        "duration": 0.06944437500000333,
        "durationTicks": 1920,
        "midi": 36,
        "name": "C2",
        "ticks": 1105920,
        "time": 39.99996,
        "velocity": 0.6299212598425197
    },
    {
        "duration": 0.06944437500000333,
        "durationTicks": 1920,
        "midi": 44,
        "name": "G#2",
        "ticks": 1105920,
        "time": 39.99996,
        "velocity": 0.6299212598425197
    },
    {
        "duration": 0.06944437500000333,
        "durationTicks": 1920,
        "midi": 44,
        "name": "G#2",
        "ticks": 1113600,
        "time": 40.2777375,
        "velocity": 0.6299212598425197
    },
    {
        "duration": 0.03993051562500227,
        "durationTicks": 1104,
        "midi": 44,
        "name": "G#2",
        "ticks": 1117440,
        "time": 40.41662625,
        "velocity": 0.6299212598425197
    },
    {
        "duration": 0.06944437500000333,
        "durationTicks": 1920,
        "midi": 44,
        "name": "G#2",
        "ticks": 1118545,
        "time": 40.45659293457032,
        "velocity": 0.6299212598425197
    },
    {
        "duration": 0.06944437500000333,
        "durationTicks": 1920,
        "midi": 37,
        "name": "C#2",
        "ticks": 1121280,
        "time": 40.555515,
        "velocity": 0.6299212598425197
    },
    {
        "duration": 0.06944437500000333,
        "durationTicks": 1920,
        "midi": 44,
        "name": "G#2",
        "ticks": 1121280,
        "time": 40.555515,
        "velocity": 0.6299212598425197
    },
    {
        "duration": 0.06944437500000333,
        "durationTicks": 1920,
        "midi": 44,
        "name": "G#2",
        "ticks": 1128960,
        "time": 40.8332925,
        "velocity": 0.6299212598425197
    },
    {
        "duration": 0.06944437500000333,
        "durationTicks": 1920,
        "midi": 36,
        "name": "C2",
        "ticks": 1132800,
        "time": 40.97218125,
        "velocity": 0.6299212598425197
    },
    {
        "duration": 0.06944437500000333,
        "durationTicks": 1920,
        "midi": 36,
        "name": "C2",
        "ticks": 1136640,
        "time": 41.11107,
        "velocity": 0.6299212598425197
    },
    {
        "duration": 0.06944437500000333,
        "durationTicks": 1920,
        "midi": 44,
        "name": "G#2",
        "ticks": 1136640,
        "time": 41.11107,
        "velocity": 0.6299212598425197
    },
    {
        "duration": 0.03993051562500227,
        "durationTicks": 1104,
        "midi": 44,
        "name": "G#2",
        "ticks": 1140480,
        "time": 41.249958750000005,
        "velocity": 0.6299212598425197
    },
    {
        "duration": 0.06944437500000333,
        "durationTicks": 1920,
        "midi": 44,
        "name": "G#2",
        "ticks": 1141585,
        "time": 41.289925434570314,
        "velocity": 0.6299212598425197
    },
    {
        "duration": 0.06944437499999623,
        "durationTicks": 1920,
        "midi": 36,
        "name": "C2",
        "ticks": 1144320,
        "time": 41.388847500000004,
        "velocity": 0.6299212598425197
    },
    {
        "duration": 0.06944437499999623,
        "durationTicks": 1920,
        "midi": 44,
        "name": "G#2",
        "ticks": 1144320,
        "time": 41.388847500000004,
        "velocity": 0.6299212598425197
    },
    {
        "duration": 0.06944437499999623,
        "durationTicks": 1920,
        "midi": 37,
        "name": "C#2",
        "ticks": 1152000,
        "time": 41.666625,
        "velocity": 0.6299212598425197
    },
    {
        "duration": 0.06944437499999623,
        "durationTicks": 1920,
        "midi": 44,
        "name": "G#2",
        "ticks": 1152000,
        "time": 41.666625,
        "velocity": 0.6299212598425197
    },
    {
        "duration": 0.06944437499999623,
        "durationTicks": 1920,
        "midi": 44,
        "name": "G#2",
        "ticks": 1155840,
        "time": 41.80551375,
        "velocity": 0.6299212598425197
    },
    {
        "duration": 0.06944437499999623,
        "durationTicks": 1920,
        "midi": 44,
        "name": "G#2",
        "ticks": 1159680,
        "time": 41.9444025,
        "velocity": 0.6299212598425197
    },
    {
        "duration": 0.06944437500000333,
        "durationTicks": 1920,
        "midi": 36,
        "name": "C2",
        "ticks": 1167360,
        "time": 42.22218,
        "velocity": 0.6299212598425197
    },
    {
        "duration": 0.06944437500000333,
        "durationTicks": 1920,
        "midi": 44,
        "name": "G#2",
        "ticks": 1167360,
        "time": 42.22218,
        "velocity": 0.6299212598425197
    },
    {
        "duration": 0.06944437500000333,
        "durationTicks": 1920,
        "midi": 44,
        "name": "G#2",
        "ticks": 1175040,
        "time": 42.4999575,
        "velocity": 0.6299212598425197
    },
    {
        "duration": 0.06944437500000333,
        "durationTicks": 1920,
        "midi": 37,
        "name": "C#2",
        "ticks": 1182720,
        "time": 42.777735,
        "velocity": 0.6299212598425197
    },
    {
        "duration": 0.06944437500000333,
        "durationTicks": 1920,
        "midi": 44,
        "name": "G#2",
        "ticks": 1182720,
        "time": 42.777735,
        "velocity": 0.6299212598425197
    },
    {
        "duration": 0.06944437500000333,
        "durationTicks": 1920,
        "midi": 44,
        "name": "G#2",
        "ticks": 1190400,
        "time": 43.0555125,
        "velocity": 0.6299212598425197
    },
    {
        "duration": 0.06944437500000333,
        "durationTicks": 1920,
        "midi": 36,
        "name": "C2",
        "ticks": 1194240,
        "time": 43.19440125,
        "velocity": 0.6299212598425197
    },
    {
        "duration": 0.06944437499999623,
        "durationTicks": 1920,
        "midi": 36,
        "name": "C2",
        "ticks": 1198080,
        "time": 43.333290000000005,
        "velocity": 0.6299212598425197
    },
    {
        "duration": 0.06944437499999623,
        "durationTicks": 1920,
        "midi": 44,
        "name": "G#2",
        "ticks": 1198080,
        "time": 43.333290000000005,
        "velocity": 0.6299212598425197
    },
    {
        "duration": 0.06944437499999623,
        "durationTicks": 1920,
        "midi": 37,
        "name": "C#2",
        "ticks": 1201920,
        "time": 43.472178750000005,
        "velocity": 0.6299212598425197
    },
    {
        "duration": 0.06944437499999623,
        "durationTicks": 1920,
        "midi": 36,
        "name": "C2",
        "ticks": 1205760,
        "time": 43.611067500000004,
        "velocity": 0.6299212598425197
    },
    {
        "duration": 0.06944437499999623,
        "durationTicks": 1920,
        "midi": 44,
        "name": "G#2",
        "ticks": 1205760,
        "time": 43.611067500000004,
        "velocity": 0.6299212598425197
    },
    {
        "duration": 0.06944437499999623,
        "durationTicks": 1920,
        "midi": 37,
        "name": "C#2",
        "ticks": 1213440,
        "time": 43.888845,
        "velocity": 0.6299212598425197
    },
    {
        "duration": 0.06944437499999623,
        "durationTicks": 1920,
        "midi": 44,
        "name": "G#2",
        "ticks": 1213440,
        "time": 43.888845,
        "velocity": 0.6299212598425197
    },
    {
        "duration": 0.03993051562500227,
        "durationTicks": 1104,
        "midi": 44,
        "name": "G#2",
        "ticks": 1217280,
        "time": 44.02773375,
        "velocity": 0.6299212598425197
    },
    {
        "duration": 0.06944437499999623,
        "durationTicks": 1920,
        "midi": 44,
        "name": "G#2",
        "ticks": 1218385,
        "time": 44.06770043457032,
        "velocity": 0.6299212598425197
    },
    {
        "duration": 0.06944437499999623,
        "durationTicks": 1920,
        "midi": 36,
        "name": "C2",
        "ticks": 1221120,
        "time": 44.1666225,
        "velocity": 0.6299212598425197
    },
    {
        "duration": 0.06944437499999623,
        "durationTicks": 1920,
        "midi": 44,
        "name": "G#2",
        "ticks": 1221120,
        "time": 44.1666225,
        "velocity": 0.6299212598425197
    },
    {
        "duration": 0.06944437499999623,
        "durationTicks": 1920,
        "midi": 37,
        "name": "C#2",
        "ticks": 1224960,
        "time": 44.30551125,
        "velocity": 0.6299212598425197
    },
    {
        "duration": 0.06944437500000333,
        "durationTicks": 1920,
        "midi": 36,
        "name": "C2",
        "ticks": 1228800,
        "time": 44.4444,
        "velocity": 0.6299212598425197
    },
    {
        "duration": 0.06944437500000333,
        "durationTicks": 1920,
        "midi": 44,
        "name": "G#2",
        "ticks": 1228800,
        "time": 44.4444,
        "velocity": 0.6299212598425197
    },
    {
        "duration": 0.06944437500000333,
        "durationTicks": 1920,
        "midi": 44,
        "name": "G#2",
        "ticks": 1236480,
        "time": 44.7221775,
        "velocity": 0.6299212598425197
    },
    {
        "duration": 0.06944437500000333,
        "durationTicks": 1920,
        "midi": 37,
        "name": "C#2",
        "ticks": 1244160,
        "time": 44.999955,
        "velocity": 0.6299212598425197
    },
    {
        "duration": 0.06944437500000333,
        "durationTicks": 1920,
        "midi": 44,
        "name": "G#2",
        "ticks": 1244160,
        "time": 44.999955,
        "velocity": 0.6299212598425197
    },
    {
        "duration": 0.06944437500000333,
        "durationTicks": 1920,
        "midi": 44,
        "name": "G#2",
        "ticks": 1251840,
        "time": 45.2777325,
        "velocity": 0.6299212598425197
    },
    {
        "duration": 0.06944437500000333,
        "durationTicks": 1920,
        "midi": 36,
        "name": "C2",
        "ticks": 1255680,
        "time": 45.41662125,
        "velocity": 0.6299212598425197
    },
    {
        "duration": 0.06944437500000333,
        "durationTicks": 1920,
        "midi": 36,
        "name": "C2",
        "ticks": 1259520,
        "time": 45.55551,
        "velocity": 0.6299212598425197
    },
    {
        "duration": 0.06944437500000333,
        "durationTicks": 1920,
        "midi": 44,
        "name": "G#2",
        "ticks": 1259520,
        "time": 45.55551,
        "velocity": 0.6299212598425197
    },
    {
        "duration": 0.06944437499999623,
        "durationTicks": 1920,
        "midi": 36,
        "name": "C2",
        "ticks": 1267200,
        "time": 45.833287500000004,
        "velocity": 0.6299212598425197
    },
    {
        "duration": 0.06944437499999623,
        "durationTicks": 1920,
        "midi": 44,
        "name": "G#2",
        "ticks": 1267200,
        "time": 45.833287500000004,
        "velocity": 0.6299212598425197
    },
    {
        "duration": 0.06944437499999623,
        "durationTicks": 1920,
        "midi": 37,
        "name": "C#2",
        "ticks": 1274880,
        "time": 46.111065,
        "velocity": 0.6299212598425197
    },
    {
        "duration": 0.06944437499999623,
        "durationTicks": 1920,
        "midi": 44,
        "name": "G#2",
        "ticks": 1274880,
        "time": 46.111065,
        "velocity": 0.6299212598425197
    },
    {
        "duration": 0.03993051562500227,
        "durationTicks": 1104,
        "midi": 44,
        "name": "G#2",
        "ticks": 1278720,
        "time": 46.24995375,
        "velocity": 0.6299212598425197
    },
    {
        "duration": 0.06944437499999623,
        "durationTicks": 1920,
        "midi": 44,
        "name": "G#2",
        "ticks": 1279825,
        "time": 46.28992043457032,
        "velocity": 0.6299212598425197
    },
    {
        "duration": 0.06944437499999623,
        "durationTicks": 1920,
        "midi": 44,
        "name": "G#2",
        "ticks": 1282560,
        "time": 46.3888425,
        "velocity": 0.6299212598425197
    },
    {
        "duration": 0.06944437500000333,
        "durationTicks": 1920,
        "midi": 36,
        "name": "C2",
        "ticks": 1290240,
        "time": 46.66662,
        "velocity": 0.6299212598425197
    },
    {
        "duration": 0.06944437500000333,
        "durationTicks": 1920,
        "midi": 44,
        "name": "G#2",
        "ticks": 1290240,
        "time": 46.66662,
        "velocity": 0.6299212598425197
    },
    {
        "duration": 0.06944437500000333,
        "durationTicks": 1920,
        "midi": 44,
        "name": "G#2",
        "ticks": 1297920,
        "time": 46.9443975,
        "velocity": 0.6299212598425197
    },
    {
        "duration": 0.03993051562500227,
        "durationTicks": 1104,
        "midi": 44,
        "name": "G#2",
        "ticks": 1301760,
        "time": 47.08328625,
        "velocity": 0.6299212598425197
    },
    {
        "duration": 0.06944437500000333,
        "durationTicks": 1920,
        "midi": 44,
        "name": "G#2",
        "ticks": 1302865,
        "time": 47.12325293457032,
        "velocity": 0.6299212598425197
    },
    {
        "duration": 0.06944437500000333,
        "durationTicks": 1920,
        "midi": 37,
        "name": "C#2",
        "ticks": 1305600,
        "time": 47.222175,
        "velocity": 0.6299212598425197
    },
    {
        "duration": 0.06944437500000333,
        "durationTicks": 1920,
        "midi": 44,
        "name": "G#2",
        "ticks": 1305600,
        "time": 47.222175,
        "velocity": 0.6299212598425197
    },
    {
        "duration": 0.06944437500000333,
        "durationTicks": 1920,
        "midi": 44,
        "name": "G#2",
        "ticks": 1313280,
        "time": 47.4999525,
        "velocity": 0.6299212598425197
    },
    {
        "duration": 0.06944437500000333,
        "durationTicks": 1920,
        "midi": 36,
        "name": "C2",
        "ticks": 1317120,
        "time": 47.63884125,
        "velocity": 0.6299212598425197
    },
    {
        "duration": 0.06944437499999623,
        "durationTicks": 1920,
        "midi": 36,
        "name": "C2",
        "ticks": 1320960,
        "time": 47.777730000000005,
        "velocity": 0.6299212598425197
    },
    {
        "duration": 0.06944437499999623,
        "durationTicks": 1920,
        "midi": 44,
        "name": "G#2",
        "ticks": 1320960,
        "time": 47.777730000000005,
        "velocity": 0.6299212598425197
    },
    {
        "duration": 0.06944437499999623,
        "durationTicks": 1920,
        "midi": 36,
        "name": "C2",
        "ticks": 1328640,
        "time": 48.055507500000004,
        "velocity": 0.6299212598425197
    },
    {
        "duration": 0.06944437499999623,
        "durationTicks": 1920,
        "midi": 44,
        "name": "G#2",
        "ticks": 1328640,
        "time": 48.055507500000004,
        "velocity": 0.6299212598425197
    },
    {
        "duration": 0.06944437499999623,
        "durationTicks": 1920,
        "midi": 37,
        "name": "C#2",
        "ticks": 1336320,
        "time": 48.333285000000004,
        "velocity": 0.6299212598425197
    },
    {
        "duration": 0.06944437499999623,
        "durationTicks": 1920,
        "midi": 44,
        "name": "G#2",
        "ticks": 1336320,
        "time": 48.333285000000004,
        "velocity": 0.6299212598425197
    },
    {
        "duration": 0.03993051562500227,
        "durationTicks": 1104,
        "midi": 44,
        "name": "G#2",
        "ticks": 1340160,
        "time": 48.47217375,
        "velocity": 0.6299212598425197
    },
    {
        "duration": 0.06944437499999623,
        "durationTicks": 1920,
        "midi": 44,
        "name": "G#2",
        "ticks": 1341265,
        "time": 48.51214043457032,
        "velocity": 0.6299212598425197
    },
    {
        "duration": 0.06944437499999623,
        "durationTicks": 1920,
        "midi": 44,
        "name": "G#2",
        "ticks": 1344000,
        "time": 48.6110625,
        "velocity": 0.6299212598425197
    },
    {
        "duration": 0.06944437500000333,
        "durationTicks": 1920,
        "midi": 36,
        "name": "C2",
        "ticks": 1351680,
        "time": 48.88884,
        "velocity": 0.6299212598425197
    },
    {
        "duration": 0.06944437500000333,
        "durationTicks": 1920,
        "midi": 44,
        "name": "G#2",
        "ticks": 1351680,
        "time": 48.88884,
        "velocity": 0.6299212598425197
    },
    {
        "duration": 0.06944437500000333,
        "durationTicks": 1920,
        "midi": 44,
        "name": "G#2",
        "ticks": 1359360,
        "time": 49.1666175,
        "velocity": 0.6299212598425197
    },
    {
        "duration": 0.03993051562500227,
        "durationTicks": 1104,
        "midi": 44,
        "name": "G#2",
        "ticks": 1363200,
        "time": 49.30550625,
        "velocity": 0.6299212598425197
    },
    {
        "duration": 0.06944437500000333,
        "durationTicks": 1920,
        "midi": 44,
        "name": "G#2",
        "ticks": 1364305,
        "time": 49.34547293457032,
        "velocity": 0.6299212598425197
    },
    {
        "duration": 0.06944437500000333,
        "durationTicks": 1920,
        "midi": 37,
        "name": "C#2",
        "ticks": 1367040,
        "time": 49.444395,
        "velocity": 0.6299212598425197
    },
    {
        "duration": 0.06944437500000333,
        "durationTicks": 1920,
        "midi": 44,
        "name": "G#2",
        "ticks": 1367040,
        "time": 49.444395,
        "velocity": 0.6299212598425197
    },
    {
        "duration": 0.06944437500000333,
        "durationTicks": 1920,
        "midi": 44,
        "name": "G#2",
        "ticks": 1374720,
        "time": 49.7221725,
        "velocity": 0.6299212598425197
    },
    {
        "duration": 0.06944437500000333,
        "durationTicks": 1920,
        "midi": 36,
        "name": "C2",
        "ticks": 1378560,
        "time": 49.86106125,
        "velocity": 0.6299212598425197
    },
    {
        "duration": 0.06944437500000333,
        "durationTicks": 1920,
        "midi": 36,
        "name": "C2",
        "ticks": 1382400,
        "time": 49.99995,
        "velocity": 0.6299212598425197
    },
    {
        "duration": 0.06944437500000333,
        "durationTicks": 1920,
        "midi": 44,
        "name": "G#2",
        "ticks": 1382400,
        "time": 49.99995,
        "velocity": 0.6299212598425197
    },
    {
        "duration": 0.03993051562500227,
        "durationTicks": 1104,
        "midi": 44,
        "name": "G#2",
        "ticks": 1386240,
        "time": 50.138838750000005,
        "velocity": 0.6299212598425197
    },
    {
        "duration": 0.06944437500000333,
        "durationTicks": 1920,
        "midi": 44,
        "name": "G#2",
        "ticks": 1387345,
        "time": 50.178805434570315,
        "velocity": 0.6299212598425197
    },
    {
        "duration": 0.06944437499999623,
        "durationTicks": 1920,
        "midi": 36,
        "name": "C2",
        "ticks": 1390080,
        "time": 50.277727500000005,
        "velocity": 0.6299212598425197
    },
    {
        "duration": 0.06944437499999623,
        "durationTicks": 1920,
        "midi": 44,
        "name": "G#2",
        "ticks": 1390080,
        "time": 50.277727500000005,
        "velocity": 0.6299212598425197
    },
    {
        "duration": 0.06944437499999623,
        "durationTicks": 1920,
        "midi": 37,
        "name": "C#2",
        "ticks": 1397760,
        "time": 50.555505000000004,
        "velocity": 0.6299212598425197
    },
    {
        "duration": 0.06944437499999623,
        "durationTicks": 1920,
        "midi": 44,
        "name": "G#2",
        "ticks": 1397760,
        "time": 50.555505000000004,
        "velocity": 0.6299212598425197
    },
    {
        "duration": 0.06944437499999623,
        "durationTicks": 1920,
        "midi": 44,
        "name": "G#2",
        "ticks": 1401600,
        "time": 50.69439375,
        "velocity": 0.6299212598425197
    },
    {
        "duration": 0.06944437499999623,
        "durationTicks": 1920,
        "midi": 44,
        "name": "G#2",
        "ticks": 1405440,
        "time": 50.8332825,
        "velocity": 0.6299212598425197
    },
    {
        "duration": 0.06944437500000333,
        "durationTicks": 1920,
        "midi": 36,
        "name": "C2",
        "ticks": 1413120,
        "time": 51.11106,
        "velocity": 0.6299212598425197
    },
    {
        "duration": 0.06944437500000333,
        "durationTicks": 1920,
        "midi": 44,
        "name": "G#2",
        "ticks": 1413120,
        "time": 51.11106,
        "velocity": 0.6299212598425197
    },
    {
        "duration": 0.06944437500000333,
        "durationTicks": 1920,
        "midi": 44,
        "name": "G#2",
        "ticks": 1420800,
        "time": 51.3888375,
        "velocity": 0.6299212598425197
    },
    {
        "duration": 0.06944437500000333,
        "durationTicks": 1920,
        "midi": 37,
        "name": "C#2",
        "ticks": 1428480,
        "time": 51.666615,
        "velocity": 0.6299212598425197
    },
    {
        "duration": 0.06944437500000333,
        "durationTicks": 1920,
        "midi": 44,
        "name": "G#2",
        "ticks": 1428480,
        "time": 51.666615,
        "velocity": 0.6299212598425197
    },
    {
        "duration": 0.06944437500000333,
        "durationTicks": 1920,
        "midi": 44,
        "name": "G#2",
        "ticks": 1436160,
        "time": 51.9443925,
        "velocity": 0.6299212598425197
    },
    {
        "duration": 0.06944437500000333,
        "durationTicks": 1920,
        "midi": 36,
        "name": "C2",
        "ticks": 1440000,
        "time": 52.08328125,
        "velocity": 0.6299212598425197
    },
    {
        "duration": 0.06944437499999623,
        "durationTicks": 1920,
        "midi": 36,
        "name": "C2",
        "ticks": 1443840,
        "time": 52.222170000000006,
        "velocity": 0.6299212598425197
    },
    {
        "duration": 0.06944437499999623,
        "durationTicks": 1920,
        "midi": 44,
        "name": "G#2",
        "ticks": 1443840,
        "time": 52.222170000000006,
        "velocity": 0.6299212598425197
    },
    {
        "duration": 0.06944437499999623,
        "durationTicks": 1920,
        "midi": 37,
        "name": "C#2",
        "ticks": 1447680,
        "time": 52.361058750000005,
        "velocity": 0.6299212598425197
    },
    {
        "duration": 0.06944437499999623,
        "durationTicks": 1920,
        "midi": 36,
        "name": "C2",
        "ticks": 1451520,
        "time": 52.499947500000005,
        "velocity": 0.6299212598425197
    },
    {
        "duration": 0.06944437499999623,
        "durationTicks": 1920,
        "midi": 44,
        "name": "G#2",
        "ticks": 1451520,
        "time": 52.499947500000005,
        "velocity": 0.6299212598425197
    },
    {
        "duration": 0.06944437499999623,
        "durationTicks": 1920,
        "midi": 37,
        "name": "C#2",
        "ticks": 1459200,
        "time": 52.777725000000004,
        "velocity": 0.6299212598425197
    },
    {
        "duration": 0.06944437499999623,
        "durationTicks": 1920,
        "midi": 44,
        "name": "G#2",
        "ticks": 1459200,
        "time": 52.777725000000004,
        "velocity": 0.6299212598425197
    },
    {
        "duration": 0.03993051562500227,
        "durationTicks": 1104,
        "midi": 44,
        "name": "G#2",
        "ticks": 1463040,
        "time": 52.91661375,
        "velocity": 0.6299212598425197
    },
    {
        "duration": 0.06944437499999623,
        "durationTicks": 1920,
        "midi": 44,
        "name": "G#2",
        "ticks": 1464145,
        "time": 52.95658043457032,
        "velocity": 0.6299212598425197
    },
    {
        "duration": 0.06944437499999623,
        "durationTicks": 1920,
        "midi": 36,
        "name": "C2",
        "ticks": 1466880,
        "time": 53.0555025,
        "velocity": 0.6299212598425197
    },
    {
        "duration": 0.06944437499999623,
        "durationTicks": 1920,
        "midi": 44,
        "name": "G#2",
        "ticks": 1466880,
        "time": 53.0555025,
        "velocity": 0.6299212598425197
    },
    {
        "duration": 0.06944437499999623,
        "durationTicks": 1920,
        "midi": 37,
        "name": "C#2",
        "ticks": 1470720,
        "time": 53.19439125,
        "velocity": 0.6299212598425197
    }
];

export default cueSet1;